<?xml version="1.0" encoding="UTF-8" standalone="no"?>
<!-- Created with Inkscape (http://www.inkscape.org/) -->

<svg
   xmlns:dc="http://purl.org/dc/elements/1.1/"
   xmlns:cc="http://creativecommons.org/ns#"
   xmlns:rdf="http://www.w3.org/1999/02/22-rdf-syntax-ns#"
   xmlns:svg="http://www.w3.org/2000/svg"
   xmlns="http://www.w3.org/2000/svg"
   xmlns:xlink="http://www.w3.org/1999/xlink"
   xmlns:sodipodi="http://sodipodi.sourceforge.net/DTD/sodipodi-0.dtd"
   xmlns:inkscape="http://www.inkscape.org/namespaces/inkscape"
   width="60"
   height="60"
   id="svg1303"
   sodipodi:version="0.32"
   inkscape:version="0.48.2 r9819"
   sodipodi:docname="GATEVersion.svg"
   inkscape:export-filename="/home/valyt/vcs/gate-top/externals/gate/build/deploy/gate-icon.png"
   inkscape:export-xdpi="192"
   inkscape:export-ydpi="192"
   version="1.1">
  <defs
     id="defs1305">
    <linearGradient
       inkscape:collect="always"
       id="linearGradient3672">
      <stop
         style="stop-color:#ff9933;stop-opacity:1;"
         offset="0"
         id="stop3674" />
      <stop
         style="stop-color:#ff9933;stop-opacity:0;"
         offset="1"
         id="stop3676" />
    </linearGradient>
    <linearGradient
       inkscape:collect="always"
       id="linearGradient3664">
      <stop
         style="stop-color:#ff9933;stop-opacity:1;"
         offset="0"
         id="stop3666" />
      <stop
         style="stop-color:#ff9933;stop-opacity:0;"
         offset="1"
         id="stop3668" />
    </linearGradient>
    <linearGradient
       inkscape:collect="always"
       id="linearGradient3656">
      <stop
         style="stop-color:#ff9933;stop-opacity:1;"
         offset="0"
         id="stop3658" />
      <stop
         style="stop-color:#ff9933;stop-opacity:0;"
         offset="1"
         id="stop3660" />
    </linearGradient>
    <linearGradient
       inkscape:collect="always"
       xlink:href="#linearGradient3656"
       id="linearGradient3662"
       x1="106.9499"
       y1="237.6167"
       x2="-6.2910686"
       y2="237.22929"
       gradientUnits="userSpaceOnUse" />
    <linearGradient
       inkscape:collect="always"
       xlink:href="#linearGradient3672"
       id="linearGradient3678"
       x1="334.10794"
       y1="193.42253"
       x2="443.7095"
       y2="192.53865"
       gradientUnits="userSpaceOnUse"
       gradientTransform="translate(-2,0)" />
    <linearGradient
       inkscape:collect="always"
       xlink:href="#linearGradient3656"
       id="linearGradient2790"
       gradientUnits="userSpaceOnUse"
       x1="106.9499"
       y1="237.6167"
       x2="-6.2910686"
       y2="237.22929"
       gradientTransform="translate(2.209709,0.441942)" />
    <linearGradient
       inkscape:collect="always"
       xlink:href="#linearGradient3664"
       id="linearGradient1335"
       gradientUnits="userSpaceOnUse"
       x1="119.18182"
       y1="151.75433"
       x2="35.416035"
       y2="152.37933"
       gradientTransform="translate(-34.8125,5.3125)" />
    <linearGradient
       inkscape:collect="always"
       xlink:href="#linearGradient3672"
       id="linearGradient1340"
       gradientUnits="userSpaceOnUse"
       gradientTransform="translate(-2.9375,13.75)"
       x1="334.10794"
       y1="193.42253"
       x2="443.7095"
       y2="192.53865" />
    <linearGradient
       inkscape:collect="always"
       xlink:href="#linearGradient3664"
       id="linearGradient1347"
       gradientUnits="userSpaceOnUse"
       gradientTransform="translate(-1.411811,90.75066)"
       x1="119.18182"
       y1="151.75433"
       x2="-4.5839682"
       y2="152.37933" />
    <linearGradient
       inkscape:collect="always"
       xlink:href="#linearGradient3664"
       id="linearGradient1351"
       gradientUnits="userSpaceOnUse"
       gradientTransform="translate(-35.41181,90.75066)"
       x1="119.18182"
       y1="151.75433"
       x2="39.166035"
       y2="152.37933" />
  </defs>
  <sodipodi:namedview
     pagecolor="#ffffff"
     bordercolor="#666666"
     borderopacity="1.0"
     inkscape:pageopacity="0.0"
     inkscape:pageshadow="2"
     inkscape:zoom="8.6989842"
     inkscape:cx="34.947322"
     inkscape:cy="22.014923"
     inkscape:document-units="pt"
     inkscape:current-layer="layer1"
     id="namedview1307"
     inkscape:window-width="1480"
     inkscape:window-height="835"
     inkscape:window-x="566"
     inkscape:window-y="244"
     fill="#ff9933"
     showgrid="false"
     inkscape:window-maximized="0"
     units="pt"
     fit-margin-top="0"
     fit-margin-left="0"
     fit-margin-right="2"
     fit-margin-bottom="2" />
  <metadata
     id="metadata1309">
    <rdf:RDF>
      <cc:Work
         rdf:about="">
        <dc:format>image/svg+xml</dc:format>
        <dc:type
           rdf:resource="http://purl.org/dc/dcmitype/StillImage" />
        <dc:title />
      </cc:Work>
    </rdf:RDF>
  </metadata>
  <g
     inkscape:groupmode="layer"
     id="layer3"
     inkscape:label="background"
     transform="translate(-116.65451,-204.47197)" />
  <g
     inkscape:label="Layer 1"
     inkscape:groupmode="layer"
     id="layer1"
     transform="translate(-116.65451,-204.47197)">
    <rect
       style="fill:#000000;fill-opacity:1;fill-rule:evenodd;stroke:#000000;stroke-width:3;stroke-miterlimit:4;stroke-opacity:1;stroke-dasharray:none"
       id="rect1375"
       width="0"
       height="104.29825"
       x="107.83379"
       y="154.53166" />
    <path
       style="fill:#ffffff;fill-opacity:1;stroke:#008000;stroke-width:2.03339958;stroke-linecap:butt;stroke-linejoin:miter;stroke-miterlimit:4;stroke-opacity:1;stroke-dasharray:none"
       d="m 170.63737,234.47196 c 0.16816,29.26374 -47.96615,23.52854 -47.96615,23.52854 l 0,-47.05707 c 0,0 47.79801,-5.73517 47.96615,23.52853 z"
       id="path2107"
       sodipodi:nodetypes="zccz"
       inkscape:connector-curvature="0" />
    <g
       style="font-size:44px;font-style:normal;font-variant:normal;font-weight:normal;font-stretch:normal;text-align:justify;line-height:125%;letter-spacing:0px;word-spacing:0px;writing-mode:lr-tb;text-anchor:start;fill:#ff0000;fill-opacity:1;stroke:#800000;font-family:Good Times;-inkscape-font-specification:Good Times"
       id="text3776">
      <path
         d="m 159.55051,249.17284 -19.096,0 c -4.37068,0 -7.99334,-1.452 -10.868,-4.356 -2.84533,-2.904 -4.268,-6.57066 -4.268,-11 0,-4.39998 1.408,-7.94931 4.224,-10.648 2.84533,-2.69864 6.48266,-4.04797 10.912,-4.048 l 16.984,0 0,5.236 -16.984,0 c -2.87468,2e-5 -5.25068,0.92402 -7.128,2.772 -1.84801,1.84802 -2.772,4.22401 -2.772,7.128 0,2.87468 0.92399,5.20667 2.772,6.996 1.87732,1.78934 4.25332,2.684 7.128,2.684 l 13.86,0 0,-6.556 -14.256,0 0,-4.796 19.492,0 0,16.588"
         style=""
         id="path3011" />
    </g>
    <g
       id="g3052">
      <rect
         ry="0"
         y="250.36763"
         x="151.00754"
         height="14.104341"
         width="25.646969"
         id="rect3003"
         style="fill:#ffffff;fill-opacity:1;stroke:none" />
      <g
         id="text3773"
         style="font-size:16px;font-style:normal;font-variant:normal;font-weight:bold;font-stretch:semi-condensed;text-align:justify;line-height:125%;letter-spacing:0px;word-spacing:0px;writing-mode:lr-tb;text-anchor:start;fill:#008000;fill-opacity:1;stroke:#008000;stroke-opacity:1;font-family:DejaVu Sans;-inkscape-font-specification:DejaVu Sans Bold Semi-Condensed">
        <path
           id="path3034"
           style=""
           d="m 152.04587,251.58777 7.91406,0 0,1.69531 -4.09375,9.96875 -2.64062,0 3.875,-9.45312 -5.05469,0 0,-2.21094" />
        <path
           id="path3036"
           style=""
           d="m 162.58493,260.22839 2.53125,0 0,3.02344 -2.53125,0 0,-3.02344" />
        <path
           id="path3038"
           style=""
           d="m 168.27243,261.17371 2.39063,0 0,-7.53907 -2.45313,0.5625 0,-2.04687 2.4375,-0.5625 2.57813,0 0,9.58594 2.39062,0 0,2.07812 -7.34375,0 0,-2.07812" />
      </g>
    </g>
    <g
       id="g3040">
      <rect
         ry="0"
         y="255.17407"
         x="116.65451"
         height="9.2978983"
         width="35.337349"
         id="rect3003-5"
         style="fill:#ffffff;fill-opacity:1;stroke:none" />
      <g
         id="text3773-7"
         style="font-size:6px;font-style:normal;font-variant:normal;font-weight:bold;font-stretch:semi-condensed;text-align:justify;line-height:125%;letter-spacing:0px;word-spacing:0px;writing-mode:lr-tb;text-anchor:start;fill:#008000;fill-opacity:1;stroke:none;font-family:DejaVu Sans;-inkscape-font-specification:DejaVu Sans Bold Semi-Condensed">
        <path
           id="path3017"
           style=""
           d="m 120.75433,259.43054 0,0.92578 c -0.21484,-0.10742 -0.42578,-0.18847 -0.63281,-0.24316 -0.20508,-0.0547 -0.39942,-0.082 -0.58301,-0.082 -0.24219,0 -0.42187,0.0371 -0.53906,0.11133 -0.11524,0.0742 -0.17285,0.18945 -0.17285,0.3457 0,0.11719 0.0391,0.20899 0.11719,0.27539 0.0781,0.0645 0.2207,0.12012 0.42773,0.16699 l 0.43067,0.0967 c 0.43945,0.0977 0.75097,0.2461 0.93457,0.44531 0.18359,0.19922 0.27538,0.48243 0.27539,0.84961 -1e-5,0.48243 -0.12891,0.8418 -0.38672,1.07813 -0.25586,0.23437 -0.64844,0.35156 -1.17774,0.35156 -0.25,0 -0.50098,-0.0264 -0.75293,-0.0791 -0.25,-0.0527 -0.50097,-0.13086 -0.75293,-0.23438 l 0,-0.95214 c 0.25196,0.14843 0.49512,0.26074 0.7295,0.33691 0.23437,0.0742 0.46093,0.11133 0.67968,0.11133 0.2207,0 0.38965,-0.041 0.50684,-0.12305 0.11914,-0.082 0.17871,-0.19922 0.17871,-0.35156 0,-0.13672 -0.04,-0.24219 -0.12012,-0.31641 -0.0801,-0.0742 -0.24023,-0.14062 -0.48047,-0.19922 l -0.39257,-0.0967 c -0.39258,-0.0937 -0.68067,-0.24316 -0.86426,-0.44824 -0.18164,-0.20507 -0.27246,-0.48144 -0.27246,-0.8291 0,-0.43554 0.12695,-0.7705 0.38086,-1.00488 0.2539,-0.23437 0.61718,-0.35156 1.08984,-0.35156 0.2168,0 0.43945,0.0186 0.66797,0.0557 0.22851,0.0352 0.46484,0.0889 0.70898,0.16113" />
        <path
           id="path3019"
           style=""
           d="m 121.9057,259.29285 1.13379,0 1.43262,3 0,-3 0.96093,0 0,4.37402 -1.13378,0 -1.42969,-3 0,3 -0.96387,0 0,-4.37402" />
        <path
           id="path3021"
           style=""
           d="m 128.81976,262.87 -1.58789,0 -0.25195,0.79687 -1.01953,0 1.45898,-4.37402 1.20996,0 1.45899,4.37402 -1.02246,0 -0.2461,-0.79687 m -1.33593,-0.81153 1.07812,0 -0.53613,-1.74023 -0.54199,1.74023" />
        <path
           id="path3023"
           style=""
           d="m 130.61273,259.29285 1.68457,0 c 0.50195,0 0.88672,0.12402 1.1543,0.37207 0.26757,0.24609 0.40136,0.59766 0.40137,1.05468 -1e-5,0.45899 -0.1338,0.81251 -0.40137,1.06055 -0.26758,0.2461 -0.65235,0.36914 -1.1543,0.36914 l -0.66797,0 0,1.51758 -1.0166,0 0,-4.37402 m 1.0166,0.81738 0,1.22168 0.55957,0 c 0.19727,0 0.34961,-0.0527 0.45704,-0.1582 0.10741,-0.10742 0.16113,-0.25879 0.16113,-0.45411 0,-0.1953 -0.0537,-0.3457 -0.16113,-0.45117 -0.10743,-0.10546 -0.25977,-0.1582 -0.45704,-0.1582 l -0.55957,0" />
        <path
           id="path3025"
           style=""
           d="m 137.31293,259.43054 0,0.92578 c -0.21485,-0.10742 -0.42579,-0.18847 -0.63282,-0.24316 -0.20508,-0.0547 -0.39941,-0.082 -0.583,-0.082 -0.24219,0 -0.42188,0.0371 -0.53907,0.11133 -0.11523,0.0742 -0.17285,0.18945 -0.17285,0.3457 0,0.11719 0.0391,0.20899 0.11719,0.27539 0.0781,0.0645 0.2207,0.12012 0.42773,0.16699 l 0.43067,0.0967 c 0.43945,0.0977 0.75097,0.2461 0.93457,0.44531 0.18359,0.19922 0.27539,0.48243 0.27539,0.84961 0,0.48243 -0.12891,0.8418 -0.38672,1.07813 -0.25586,0.23437 -0.64844,0.35156 -1.17773,0.35156 -0.25001,0 -0.50098,-0.0264 -0.75293,-0.0791 -0.25,-0.0527 -0.50098,-0.13086 -0.75293,-0.23438 l 0,-0.95214 c 0.25195,0.14843 0.49511,0.26074 0.72949,0.33691 0.23437,0.0742 0.46094,0.11133 0.67969,0.11133 0.2207,0 0.38964,-0.041 0.50683,-0.12305 0.11914,-0.082 0.17871,-0.19922 0.17871,-0.35156 0,-0.13672 -0.04,-0.24219 -0.12011,-0.31641 -0.0801,-0.0742 -0.24024,-0.14062 -0.48047,-0.19922 l -0.39258,-0.0967 c -0.39258,-0.0937 -0.68067,-0.24316 -0.86426,-0.44824 -0.18164,-0.20507 -0.27246,-0.48144 -0.27246,-0.8291 0,-0.43554 0.12695,-0.7705 0.38086,-1.00488 0.25391,-0.23437 0.61719,-0.35156 1.08984,-0.35156 0.2168,0 0.43945,0.0186 0.66797,0.0557 0.22852,0.0352 0.46484,0.0889 0.70899,0.16113" />
        <path
           id="path3027"
           style=""
           d="m 138.46429,259.29285 1.01661,0 0,1.66699 1.49707,0 0,-1.66699 1.01367,0 0,4.37402 -1.01367,0 0,-1.85449 -1.49707,0 0,1.85449 -1.01661,0 0,-4.37402" />
        <path
           id="path3029"
           style=""
           d="m 144.78656,260.03113 c -0.3086,0 -0.54883,0.12695 -0.7207,0.38086 -0.16993,0.25391 -0.25489,0.61133 -0.25489,1.07226 0,0.45899 0.085,0.81543 0.25489,1.06934 0.17187,0.25391 0.4121,0.38086 0.7207,0.38086 0.31054,0 0.55078,-0.12695 0.7207,-0.38086 0.17187,-0.25391 0.25781,-0.61035 0.25782,-1.06934 -1e-5,-0.46093 -0.086,-0.81835 -0.25782,-1.07226 -0.16992,-0.25391 -0.41016,-0.38086 -0.7207,-0.38086 m 0,-0.81738 c 0.63281,0 1.12793,0.20117 1.48535,0.60351 0.35937,0.40235 0.53906,0.95801 0.53906,1.66699 0,0.70704 -0.17969,1.26172 -0.53906,1.66407 -0.35742,0.40234 -0.85254,0.60351 -1.48535,0.60351 -0.63086,0 -1.12598,-0.20117 -1.48535,-0.60351 -0.35938,-0.40235 -0.53906,-0.95703 -0.53906,-1.66407 0,-0.70898 0.17968,-1.26464 0.53906,-1.66699 0.35937,-0.40234 0.85449,-0.60351 1.48535,-0.60351" />
        <path
           id="path3031"
           style=""
           d="m 147.11273,259.29285 3.62696,0 0,0.85254 -1.30372,0 0,3.52148 -1.0166,0 0,-3.52148 -1.30664,0 0,-0.85254" />
      </g>
    </g>
  </g>
</svg>
